Coordinates
version=1
nRows=8
nColumns=36
inDegrees=yes

Units are S.I. units (second, meters, Newtons, ...)
If the header above contains a line with 'inDegrees', this indicates whether rotational values are in degrees (yes) or radians (no).

endheader
time	pelvis_tilt	pelvis_list	pelvis_rotation	pelvis_tx	pelvis_ty	pelvis_tz	hip_flexion_r	hip_adduction_r	hip_rotation_r	knee_angle_r	knee_angle_r_beta	ankle_angle_r	subtalar_angle_r	mtp_angle_r	hip_flexion_l	hip_adduction_l	hip_rotation_l	knee_angle_l	knee_angle_l_beta	ankle_angle_l	subtalar_angle_l	mtp_angle_l	lumbar_extension	lumbar_bending	lumbar_rotation	arm_flex_r	arm_add_r	arm_rot_r	elbow_flex_r	pro_sup_r	arm_flex_l	arm_add_l	arm_rot_l	elbow_flex_l	pro_sup_l
      3.06666670	     -6.16774824	      3.42542082	      1.66091856	      0.34558937	      1.20977548	     -0.13745721	     14.94076015	     -9.63409693	     18.36457909	     25.09935774	      0.43806643	    -17.92488965	    -22.53929493	     -7.49999987	     11.94356290	      6.20527623	      2.17416975	     11.67127245	      0.20370213	    -28.02485860	    -18.11668977	     -7.49999987	    -13.03537733	     -4.48667177	      9.50168158	      8.64610765	    -14.03124389	    -49.71796264	     58.91508219	     78.57889490	     -3.16986335	    -19.36139526	    359.42696378	     18.59903030	     71.68794127
      3.07083330	     -6.23889018	      3.42389958	      1.83755960	      0.34539402	      1.21178347	     -0.13954005	     15.27640311	     -9.68456986	     18.09507204	     25.58191270	      0.44648861	    -17.60930062	    -23.11170876	     -7.49999987	     12.12260337	      6.32673897	      2.63514377	     11.97699632	      0.20903802	    -27.17312378	    -17.83055080	     -7.49999987	    -12.84331409	     -4.46823151	      9.23242413	      8.71998568	    -14.02794221	    -49.35089735	     58.53478419	     77.84211542	     -3.41094426	    -19.05518276	    358.26594766	     18.90338323	     71.24723494
      3.07500000	     -6.12072366	      3.43408848	      1.92888573	      0.34530674	      1.20906478	     -0.13897216	     15.78867453	     -9.60741599	     18.03489687	     26.75464885	      0.46695671	    -17.28201110	    -23.69993556	     -7.49999987	     12.22578051	      6.41128202	      3.00946913	     12.53703577	      0.21881255	    -25.77364088	    -17.25900627	     -7.49999987	    -12.96004381	     -4.41304898	      9.41572596	      8.60380354	    -14.10483789	    -49.85161769	     58.86820313	     80.90548553	     -3.08956969	    -19.20753006	    360.97353889	     18.59342954	     72.96465182
      3.07916670	     -5.98778310	      3.41876763	      2.04052504	      0.34598538	      1.21174760	     -0.13734693	     15.94886040	     -9.49003249	     17.57926026	     27.48200416	      0.47965146	    -17.10969595	    -24.33948663	     -7.49999987	     12.03198532	      6.42105135	      2.96264141	     12.56088428	      0.21922879	    -25.02905823	    -16.78016962	     -7.49999987	    -13.32890267	     -4.36503619	      9.43834536	      8.80152259	    -14.26959594	    -49.74784761	     58.74681975	     80.82028494	     -2.81296031	    -19.04477317	    361.11983729	     18.61429126	     73.15498619
      3.08333330	     -6.20096041	      3.44259321	      2.41113090	      0.34561717	      1.20772508	     -0.13741126	     16.72116950	     -9.43609062	     17.40587749	     28.75350476	      0.50184333	    -16.86447581	    -25.26178348	     -7.49999987	     12.33587132	      6.49933417	      3.69761724	     13.00414850	      0.22696521	    -23.23389245	    -16.29720916	     -7.49999987	    -13.28074260	     -4.11839566	      9.25598439	      8.93975670	    -14.58164011	    -50.10557487	     58.80171395	     85.94175667	     -2.98736167	    -18.82808457	    360.19814624	     19.28917153	     73.90950482
      3.08750000	     -6.26203393	      3.40210860	      2.74722374	      0.34666157	      1.20794357	     -0.13759512	     17.08844730	     -9.39858634	     17.08824932	     29.61235893	      0.51683316	    -16.58343046	    -25.84516950	     -7.49999987	     12.41236324	      6.63072340	      4.51097653	     13.29447528	      0.23203237	    -21.23695946	    -15.22874211	     -7.49999987	    -13.28428697	     -3.80964623	      9.21527281	      8.83600678	    -14.83107253	    -50.00599573	     59.03777823	     83.19872386	     -2.88836744	    -18.67126607	    360.72856831	     19.61232986	     73.49652907
      3.09166670	     -6.44545213	      3.37554475	      3.11384427	      0.34648771	      1.20467538	     -0.13635284	     17.72341425	     -9.19640324	     17.05589924	     30.73875974	      0.53649257	    -16.34425895	    -26.63149837	     -7.49999987	     12.83119662	      6.73597783	      4.89285395	     13.81708610	      0.24115365	    -19.37239733	    -14.59080853	     -7.49999987	    -13.13997877	     -3.59660118	      8.93665654	      8.74404816	    -14.82472786	    -49.86787493	     59.36630479	     82.47441139	     -3.02553837	    -18.51405192	    359.87159794	     20.08019179	     72.99186493
      3.09583330	     -6.29935255	      3.50497567	      3.37343875	      0.34721535	      1.20376105	     -0.13623349	     17.98976962	     -9.19252647	     16.99636133	     31.83872650	      0.55569061	    -16.08302206	    -27.86157305	     -7.49999987	     12.72860579	      6.99528130	      5.32099324	     14.11963686	      0.24643415	    -17.94363012	    -13.75743856	     -7.49999987	    -13.46402782	     -3.56167916	      8.56658104	      8.74489465	    -14.79418482	    -49.50371977	     59.85893355	     80.54768365	     -3.13383478	    -18.47842204	    359.54861421	     20.59570330	     72.40186942
